<svg xmlns="http://www.w3.org/2000/svg" width="253" height="263" viewBox="0 0 253 263">
  <g id="Path_2" data-name="Path 2" fill="#b42e33">
    <path d="M 126.5 258 C 118.26611328125 258 110.0386505126953 257.1379699707031 102.0461502075195 255.4378051757813 C 94.25734710693359 253.781005859375 86.59534454345703 251.3085021972656 79.27296447753906 248.0889587402344 C 72.07904052734375 244.9259185791016 65.13919067382813 241.0100402832031 58.64627075195313 236.4501190185547 C 52.20999908447266 231.9299926757813 46.15665435791016 226.7379608154297 40.65438461303711 221.0181884765625 C 35.14884567260742 215.2950439453125 30.14996147155762 208.9967346191406 25.79661560058594 202.2982635498047 C 21.40003776550293 195.5332336425781 17.62361526489258 188.3006134033203 14.57230758666992 180.8013458251953 C 11.46373081207275 173.1613922119141 9.076153755187988 165.1656188964844 7.475884437561035 157.0361175537109 C 5.833000183105469 148.6902618408203 5 140.0986480712891 5 131.5 C 5 122.9013442993164 5.833000183105469 114.3097686767578 7.475884437561035 105.9638824462891 C 9.076153755187988 97.83438110351563 11.46373081207275 89.83861541748047 14.57230758666992 82.19865417480469 C 17.62361526489258 74.69938659667969 21.40003776550293 67.46680450439453 25.79661560058594 60.7017707824707 C 30.14996147155762 54.00326919555664 35.14884567260742 47.70500183105469 40.65438461303711 41.98184585571289 C 46.15665435791016 36.26203918457031 52.20999908447266 31.06999969482422 58.64627075195313 26.54988479614258 C 65.13919067382813 21.98996162414551 72.07904052734375 18.07407760620117 79.27296447753906 14.91103839874268 C 86.59534454345703 11.69149971008301 94.25734710693359 9.218999862670898 102.0461502075195 7.562192440032959 C 110.0386505126953 5.862038612365723 118.26611328125 5 126.5 5 C 134.73388671875 5 142.9613494873047 5.862038612365723 150.9538421630859 7.562192440032959 C 158.7426605224609 9.218999862670898 166.4046478271484 11.69149971008301 173.7270355224609 14.91103839874268 C 180.9209594726563 18.07407760620117 187.8608093261719 21.98996162414551 194.3537292480469 26.54988479614258 C 200.7899932861328 31.06999969482422 206.8433532714844 36.26203918457031 212.3456115722656 41.98184585571289 C 217.8511505126953 47.70500183105469 222.8500366210938 54.00326919555664 227.2033843994141 60.7017707824707 C 231.5999603271484 67.46680450439453 235.3763885498047 74.69938659667969 238.4276885986328 82.19865417480469 C 241.5362701416016 89.83861541748047 243.9238433837891 97.83438110351563 245.5241088867188 105.9638824462891 C 247.1670074462891 114.3097686767578 248 122.9013442993164 248 131.5 C 248 140.0986480712891 247.1670074462891 148.6902618408203 245.5241088867188 157.0361175537109 C 243.9238433837891 165.1656188964844 241.5362701416016 173.1613922119141 238.4276885986328 180.8013458251953 C 235.3763885498047 188.3006134033203 231.5999603271484 195.5332336425781 227.2033843994141 202.2982635498047 C 222.8500366210938 208.9967346191406 217.8511505126953 215.2950439453125 212.3456115722656 221.0181884765625 C 206.8433532714844 226.7379608154297 200.7899932861328 231.9299926757813 194.3537292480469 236.4501190185547 C 187.8608093261719 241.0100402832031 180.9209594726563 244.9259185791016 173.7270355224609 248.0889587402344 C 166.4046478271484 251.3085021972656 158.7426605224609 253.781005859375 150.9538421630859 255.4378051757813 C 142.9613494873047 257.1379699707031 134.73388671875 258 126.5 258 Z" stroke="none"/>
    <path d="M 126.5 10 C 62.26168823242188 10 10 64.50468444824219 10 131.5 C 10 198.4953155517578 62.26168823242188 253 126.5 253 C 190.7383117675781 253 243 198.4953155517578 243 131.5 C 243 64.50468444824219 190.7383117675781 10 126.5 10 M 126.5 0 C 196.3639984130859 0 253 58.87454223632813 253 131.5 C 253 204.1254577636719 196.3639984130859 263 126.5 263 C 56.63600158691406 263 0 204.1254577636719 0 131.5 C 0 58.87454223632813 56.63600158691406 0 126.5 0 Z" stroke="none" fill="#707070"/>
  </g>
</svg>
